<svg width="299" height="272" viewBox="0 0 299 272" fill="none" xmlns="http://www.w3.org/2000/svg">
<mask id="path-1-inside-1_7197_38257" fill="white">
<path fill-rule="evenodd" clip-rule="evenodd" d="M91.0346 2.64051C67.1033 -1.57924 44.2823 14.4002 40.0626 38.3315L17.141 168.326C12.9213 192.257 28.9007 215.078 52.832 219.298L67.7558 221.93C68.489 222.242 69.2347 222.537 69.9927 222.812L194.032 267.959C216.867 276.27 242.116 264.497 250.427 241.662L295.574 117.622C303.885 94.7871 292.112 69.538 269.277 61.2268L255.536 56.2255C250.894 40.8272 237.949 28.5455 221.029 25.5621L91.0346 2.64051Z"/>
</mask>
<path fill-rule="evenodd" clip-rule="evenodd" d="M91.0346 2.64051C67.1033 -1.57924 44.2823 14.4002 40.0626 38.3315L17.141 168.326C12.9213 192.257 28.9007 215.078 52.832 219.298L67.7558 221.93C68.489 222.242 69.2347 222.537 69.9927 222.812L194.032 267.959C216.867 276.27 242.116 264.497 250.427 241.662L295.574 117.622C303.885 94.7871 292.112 69.538 269.277 61.2268L255.536 56.2255C250.894 40.8272 237.949 28.5455 221.029 25.5621L91.0346 2.64051Z" fill="#14964F" fill-opacity="0.4"/>
<path d="M40.0626 38.3315L38.093 37.9842L38.093 37.9842L40.0626 38.3315ZM91.0346 2.64051L90.6873 4.61012L91.0346 2.64051ZM17.141 168.326L15.1714 167.979L15.1714 167.979L17.141 168.326ZM52.832 219.298L53.1793 217.329L53.1793 217.329L52.832 219.298ZM67.7558 221.93L68.5399 220.09L68.329 220L68.1031 219.96L67.7558 221.93ZM69.9927 222.812L70.6767 220.933L70.6767 220.933L69.9927 222.812ZM194.032 267.959L193.348 269.839L193.348 269.839L194.032 267.959ZM250.427 241.662L248.548 240.978L248.548 240.978L250.427 241.662ZM295.574 117.622L293.695 116.938L293.695 116.938L295.574 117.622ZM269.277 61.2268L268.592 63.1062L268.592 63.1062L269.277 61.2268ZM255.536 56.2255L253.621 56.8027L253.91 57.7622L254.852 58.1049L255.536 56.2255ZM221.029 25.5621L221.377 23.5925L221.377 23.5925L221.029 25.5621ZM42.0322 38.6788C46.0601 15.8353 67.8438 0.582186 90.6873 4.61012L91.3819 0.670891C66.3628 -3.74066 42.5045 12.9651 38.093 37.9842L42.0322 38.6788ZM19.1106 168.673L42.0322 38.6788L38.093 37.9842L15.1714 167.979L19.1106 168.673ZM53.1793 217.329C30.3358 213.301 15.0827 191.517 19.1106 168.673L15.1714 167.979C10.7599 192.998 27.4656 216.856 52.4847 221.268L53.1793 217.329ZM68.1031 219.96L53.1793 217.329L52.4847 221.268L67.4085 223.899L68.1031 219.96ZM70.6767 220.933C69.9525 220.67 69.2402 220.388 68.5399 220.09L66.9717 223.77C67.7379 224.096 68.517 224.404 69.3086 224.692L70.6767 220.933ZM194.716 266.08L70.6767 220.933L69.3086 224.692L193.348 269.839L194.716 266.08ZM248.548 240.978C240.615 262.775 216.513 274.013 194.716 266.08L193.348 269.839C217.221 278.528 243.618 266.219 252.307 242.346L248.548 240.978ZM293.695 116.938L248.548 240.978L252.307 242.346L297.453 118.306L293.695 116.938ZM268.592 63.1062C290.39 71.0396 301.628 95.141 293.695 116.938L297.453 118.306C306.143 94.4332 293.834 68.0364 269.961 59.3474L268.592 63.1062ZM254.852 58.1049L268.592 63.1062L269.961 59.3474L256.22 54.3461L254.852 58.1049ZM220.682 27.5317C236.83 30.379 249.189 42.099 253.621 56.8027L257.45 55.6483C252.6 39.5553 239.068 26.712 221.377 23.5925L220.682 27.5317ZM90.6873 4.61012L220.682 27.5317L221.377 23.5925L91.3819 0.670891L90.6873 4.61012Z" fill="url(#paint0_linear_7197_38257)" mask="url(#path-1-inside-1_7197_38257)"/>
<rect x="48.5143" y="-3.84154" width="218" height="218" rx="43" transform="rotate(10 48.5143 -3.84154)" fill="#14964F" fill-opacity="0.5" stroke="url(#paint1_linear_7197_38257)" stroke-width="2"/>
<rect x="1" y="1" width="218" height="218" rx="43" fill="#14964F"/>
<rect x="1" y="1" width="218" height="218" rx="43" fill="url(#paint2_radial_7197_38257)" fill-opacity="0.3"/>
<rect x="1" y="1" width="218" height="218" rx="43" fill="url(#paint3_radial_7197_38257)" fill-opacity="0.3"/>
<rect x="1" y="1" width="218" height="218" rx="43" fill="url(#paint4_radial_7197_38257)" fill-opacity="0.3"/>
<path d="M48.8889 110.366C48.8889 73.0192 72.7491 48.8538 109.658 48.8538C147.498 48.8538 170.613 72.2869 170.613 109.633C170.613 147.163 146.566 171.145 109.658 171.145C72.0034 171.328 48.8889 148.078 48.8889 110.366ZM135.568 110C135.568 85.285 128.112 65.6964 109.098 65.6964C89.8985 65.8794 83.9335 85.4681 83.9335 110C83.9335 134.531 91.3898 154.303 110.403 154.303C129.603 154.303 135.568 134.714 135.568 110Z" fill="white"/>
<path d="M185.339 122.222H115.25L111.336 134.444H181.425L185.339 122.222Z" fill="white"/>
<path d="M188.322 97.8287H118.233L114.505 110.051H184.594L188.322 97.8287Z" fill="white"/>
<rect x="1" y="1" width="218" height="218" rx="43" stroke="url(#paint5_linear_7197_38257)" stroke-width="2"/>
<defs>
<linearGradient id="paint0_linear_7197_38257" x1="16.4652" y1="-4.75181" x2="273.304" y2="276.752" gradientUnits="userSpaceOnUse">
<stop stop-color="#5EEE9B"/>
<stop offset="0.5" stop-color="#03B659" stop-opacity="0"/>
<stop offset="1" stop-color="#5EEE9B"/>
</linearGradient>
<linearGradient id="paint1_linear_7197_38257" x1="47.7031" y1="-10.5" x2="258.703" y2="210" gradientUnits="userSpaceOnUse">
<stop stop-color="#5EEE9B"/>
<stop offset="0.5" stop-color="#03B659" stop-opacity="0"/>
<stop offset="1" stop-color="#5EEE9B"/>
</linearGradient>
<radialGradient id="paint2_radial_7197_38257" cx="0" cy="0" r="1" gradientUnits="userSpaceOnUse" gradientTransform="translate(-9.16667 -9.19042e-06) rotate(38.0168) scale(178.602 196.115)">
<stop offset="0.0206068" stop-color="white" stop-opacity="0.4"/>
<stop offset="0.432292" stop-color="white" stop-opacity="0"/>
</radialGradient>
<radialGradient id="paint3_radial_7197_38257" cx="0" cy="0" r="1" gradientUnits="userSpaceOnUse" gradientTransform="translate(249.792 78.8333) rotate(179.405) scale(132.465 145.454)">
<stop offset="0.0206068" stop-color="white" stop-opacity="0.4"/>
<stop offset="0.451086" stop-color="white" stop-opacity="0"/>
</radialGradient>
<radialGradient id="paint4_radial_7197_38257" cx="0" cy="0" r="1" gradientUnits="userSpaceOnUse" gradientTransform="translate(84.7917 249.333) rotate(-90) scale(152.167 223.222)">
<stop offset="0.0206068" stop-color="white" stop-opacity="0.4"/>
<stop offset="0.451086" stop-color="white" stop-opacity="0"/>
</radialGradient>
<linearGradient id="paint5_linear_7197_38257" x1="1.07139e-06" y1="-5.5" x2="211" y2="215" gradientUnits="userSpaceOnUse">
<stop stop-color="#5EEE9B"/>
<stop offset="0.5" stop-color="#03B659" stop-opacity="0"/>
<stop offset="1" stop-color="#5EEE9B"/>
</linearGradient>
</defs>
</svg>
