<svg width="299" height="272" viewBox="0 0 299 272" fill="none" xmlns="http://www.w3.org/2000/svg">
<mask id="path-1-inside-1_6932_36181" fill="white">
<path fill-rule="evenodd" clip-rule="evenodd" d="M91.0347 2.64066C67.1033 -1.57908 44.2823 14.4003 40.0626 38.3317L17.141 168.326C12.9213 192.258 28.9007 215.079 52.8321 219.298L67.7558 221.93C68.489 222.242 69.2348 222.537 69.9927 222.813L194.032 267.959C216.867 276.271 242.116 264.497 250.427 241.662L295.574 117.622C303.885 94.7873 292.112 69.5382 269.277 61.2269L255.536 56.2257C250.894 40.8273 237.949 28.5456 221.029 25.5622L91.0347 2.64066Z"/>
</mask>
<path fill-rule="evenodd" clip-rule="evenodd" d="M91.0347 2.64066C67.1033 -1.57908 44.2823 14.4003 40.0626 38.3317L17.141 168.326C12.9213 192.258 28.9007 215.079 52.8321 219.298L67.7558 221.93C68.489 222.242 69.2348 222.537 69.9927 222.813L194.032 267.959C216.867 276.271 242.116 264.497 250.427 241.662L295.574 117.622C303.885 94.7873 292.112 69.5382 269.277 61.2269L255.536 56.2257C250.894 40.8273 237.949 28.5456 221.029 25.5622L91.0347 2.64066Z" fill="#00214A" fill-opacity="0.5"/>
<path d="M40.0626 38.3317L38.093 37.9844L38.093 37.9844L40.0626 38.3317ZM91.0347 2.64066L90.6874 4.61028L91.0347 2.64066ZM17.141 168.326L15.1714 167.979L15.1714 167.979L17.141 168.326ZM52.8321 219.298L53.1794 217.329L53.1794 217.329L52.8321 219.298ZM67.7558 221.93L68.54 220.09L68.329 220L68.1031 219.96L67.7558 221.93ZM69.9927 222.813L70.6767 220.933L70.6767 220.933L69.9927 222.813ZM194.032 267.959L193.348 269.839L193.348 269.839L194.032 267.959ZM250.427 241.662L248.548 240.978L248.548 240.978L250.427 241.662ZM295.574 117.622L293.695 116.938L293.695 116.938L295.574 117.622ZM269.277 61.2269L268.592 63.1063L268.592 63.1063L269.277 61.2269ZM255.536 56.2257L253.621 56.8029L253.91 57.7623L254.852 58.105L255.536 56.2257ZM221.029 25.5622L221.377 23.5926L221.377 23.5926L221.029 25.5622ZM42.0322 38.679C46.0602 15.8354 67.8438 0.582339 90.6874 4.61028L91.382 0.671044C66.3628 -3.7405 42.5045 12.9652 38.093 37.9844L42.0322 38.679ZM19.1107 168.674L42.0322 38.679L38.093 37.9844L15.1714 167.979L19.1107 168.674ZM53.1794 217.329C30.3358 213.301 15.0827 191.517 19.1107 168.674L15.1714 167.979C10.7599 192.998 27.4656 216.856 52.4848 221.268L53.1794 217.329ZM68.1031 219.96L53.1794 217.329L52.4848 221.268L67.4085 223.899L68.1031 219.96ZM70.6767 220.933C69.9525 220.67 69.2402 220.388 68.54 220.09L66.9717 223.77C67.7379 224.096 68.517 224.404 69.3086 224.692L70.6767 220.933ZM194.716 266.08L70.6767 220.933L69.3086 224.692L193.348 269.839L194.716 266.08ZM248.548 240.978C240.615 262.775 216.513 274.013 194.716 266.08L193.348 269.839C217.221 278.528 243.618 266.219 252.307 242.346L248.548 240.978ZM293.695 116.938L248.548 240.978L252.307 242.346L297.453 118.306L293.695 116.938ZM268.592 63.1063C290.39 71.0398 301.628 95.1412 293.695 116.938L297.453 118.306C306.143 94.4333 293.834 68.0366 269.961 59.3475L268.592 63.1063ZM254.852 58.105L268.592 63.1063L269.961 59.3475L256.22 54.3463L254.852 58.105ZM220.682 27.5318C236.83 30.3792 249.189 42.0992 253.621 56.8029L257.451 55.6484C252.6 39.5555 239.068 26.7121 221.377 23.5926L220.682 27.5318ZM90.6874 4.61028L220.682 27.5318L221.377 23.5926L91.382 0.671044L90.6874 4.61028Z" fill="url(#paint0_linear_6932_36181)" mask="url(#path-1-inside-1_6932_36181)"/>
<rect x="49.0138" y="-3.84154" width="218" height="218" rx="43" transform="rotate(10 49.0138 -3.84154)" fill="#00214A" fill-opacity="0.4" stroke="url(#paint1_linear_6932_36181)" stroke-width="2"/>
<rect x="1" y="1" width="218" height="218" rx="43" fill="#00214A"/>
<rect x="1" y="1" width="218" height="218" rx="43" fill="url(#paint2_radial_6932_36181)" fill-opacity="0.3"/>
<rect x="1" y="1" width="218" height="218" rx="43" fill="url(#paint3_radial_6932_36181)" fill-opacity="0.3"/>
<rect x="1" y="1" width="218" height="218" rx="43" fill="url(#paint4_radial_6932_36181)" fill-opacity="0.3"/>
<path d="M73.6802 139.161H53.1896L42.6848 99.2437H63.1754L73.6802 139.161Z" fill="white"/>
<path d="M160.845 104.878H140.354L156.825 43.4062H177.316L160.845 104.878Z" fill="white"/>
<path d="M119.705 74.1421L102.378 138.807L92.2533 176.595H112.504H112.744L140.196 74.1421H119.705Z" fill="white"/>
<path d="M95.7813 114.391H75.2907L91.8082 176.595H92.0483H112.504L95.7813 114.391Z" fill="white"/>
<rect x="1" y="1" width="218" height="218" rx="43" stroke="url(#paint5_linear_6932_36181)" stroke-width="2"/>
<defs>
<linearGradient id="paint0_linear_6932_36181" x1="16.4652" y1="-4.75166" x2="273.304" y2="276.753" gradientUnits="userSpaceOnUse">
<stop stop-color="#4F7AB5"/>
<stop offset="0.5" stop-color="#00214A" stop-opacity="0"/>
<stop offset="1" stop-color="#4F7AB5"/>
</linearGradient>
<linearGradient id="paint1_linear_6932_36181" x1="48.2026" y1="-10.5" x2="259.203" y2="210" gradientUnits="userSpaceOnUse">
<stop stop-color="#4F7AB5"/>
<stop offset="0.5" stop-color="#00214A" stop-opacity="0"/>
<stop offset="1" stop-color="#4F7AB5"/>
</linearGradient>
<radialGradient id="paint2_radial_6932_36181" cx="0" cy="0" r="1" gradientUnits="userSpaceOnUse" gradientTransform="translate(-9.16667 -9.19042e-06) rotate(38.0168) scale(178.602 196.115)">
<stop offset="0.0206068" stop-color="white" stop-opacity="0.3"/>
<stop offset="0.432292" stop-color="white" stop-opacity="0"/>
</radialGradient>
<radialGradient id="paint3_radial_6932_36181" cx="0" cy="0" r="1" gradientUnits="userSpaceOnUse" gradientTransform="translate(249.792 78.8333) rotate(179.405) scale(132.465 145.454)">
<stop offset="0.0206068" stop-color="white" stop-opacity="0.4"/>
<stop offset="0.451086" stop-color="white" stop-opacity="0"/>
</radialGradient>
<radialGradient id="paint4_radial_6932_36181" cx="0" cy="0" r="1" gradientUnits="userSpaceOnUse" gradientTransform="translate(84.7917 249.333) rotate(-90) scale(152.167 223.222)">
<stop offset="0.0206068" stop-color="white" stop-opacity="0.3"/>
<stop offset="0.451086" stop-color="white" stop-opacity="0"/>
</radialGradient>
<linearGradient id="paint5_linear_6932_36181" x1="1.07139e-06" y1="-5.5" x2="211" y2="215" gradientUnits="userSpaceOnUse">
<stop stop-color="#4F7AB5"/>
<stop offset="0.5" stop-color="#00214A" stop-opacity="0"/>
<stop offset="1" stop-color="#4F7AB5"/>
</linearGradient>
</defs>
</svg>
