<!-- by TradingView --><svg width="18" height="18" fill="none" xmlns="http://www.w3.org/2000/svg"><path fill="#215A8C" d="M0 0h18v18H0z"/><path d="M4.503 11c.94 0 1.504-.472 1.504-1.214v-.002c0-.609-.351-.938-1.132-1.099l-.395-.083c-.429-.088-.62-.23-.62-.474v-.003c0-.276.24-.466.64-.469.386 0 .654.185.693.488l.003.032h.736l-.003-.05C5.893 7.446 5.364 7 4.501 7c-.827 0-1.42.466-1.42 1.173v.003c0 .582.371.946 1.107 1.099l.393.08c.462.1.646.23.646.493v.003c0 .294-.271.49-.703.49-.426 0-.734-.188-.783-.488l-.005-.03H3l.003.044c.043.712.614 1.133 1.5 1.133zM6.193 11H9v-.734H7.13v-.016L9 7.592V7H6.237v.734H8.09v.016l-1.896 2.655V11zM10.76 11c.94 0 1.504-.472 1.504-1.214v-.002c0-.609-.351-.938-1.131-1.099l-.396-.083c-.428-.088-.62-.23-.62-.474v-.003c0-.276.24-.466.641-.469.385 0 .654.185.692.488l.003.032h.736l-.002-.05C12.15 7.446 11.62 7 10.758 7c-.827 0-1.42.466-1.42 1.173v.003c0 .582.371.946 1.107 1.099l.393.08c.463.1.646.23.646.493v.003c0 .294-.271.49-.703.49-.426 0-.733-.188-.782-.488l-.006-.03h-.736l.003.044c.044.712.615 1.133 1.5 1.133zM12.53 11H15v-.734h-1.69v-.973H15v-.632h-1.69v-.927H15V7h-2.47v4z" fill="#fff"/></svg>