<svg width="299" height="272" viewBox="0 0 299 272" fill="none" xmlns="http://www.w3.org/2000/svg">
<mask id="path-1-inside-1_6932_35980" fill="white">
<path fill-rule="evenodd" clip-rule="evenodd" d="M91.0348 2.64066C67.1034 -1.57908 44.2824 14.4003 40.0627 38.3317L17.1411 168.326C12.9214 192.258 28.9008 215.079 52.8322 219.298L67.756 221.93C68.4892 222.242 69.2349 222.537 69.9928 222.813L194.032 267.959C216.867 276.271 242.116 264.497 250.428 241.662L295.574 117.622C303.885 94.7873 292.112 69.5382 269.277 61.2269L255.536 56.2257C250.894 40.8273 237.949 28.5456 221.029 25.5622L91.0348 2.64066Z"/>
</mask>
<path fill-rule="evenodd" clip-rule="evenodd" d="M91.0348 2.64066C67.1034 -1.57908 44.2824 14.4003 40.0627 38.3317L17.1411 168.326C12.9214 192.258 28.9008 215.079 52.8322 219.298L67.756 221.93C68.4892 222.242 69.2349 222.537 69.9928 222.813L194.032 267.959C216.867 276.271 242.116 264.497 250.428 241.662L295.574 117.622C303.885 94.7873 292.112 69.5382 269.277 61.2269L255.536 56.2257C250.894 40.8273 237.949 28.5456 221.029 25.5622L91.0348 2.64066Z" fill="#048BD1" fill-opacity="0.4"/>
<path d="M40.0627 38.3317L38.0931 37.9844L38.0931 37.9844L40.0627 38.3317ZM91.0348 2.64066L90.6875 4.61028L91.0348 2.64066ZM17.1411 168.326L15.1715 167.979L15.1715 167.979L17.1411 168.326ZM52.8322 219.298L53.1795 217.329L53.1795 217.329L52.8322 219.298ZM67.756 221.93L68.5401 220.09L68.3291 220L68.1032 219.96L67.756 221.93ZM69.9928 222.813L70.6768 220.933L70.6768 220.933L69.9928 222.813ZM194.032 267.959L193.348 269.839L193.348 269.839L194.032 267.959ZM250.428 241.662L248.548 240.978L248.548 240.978L250.428 241.662ZM295.574 117.622L293.695 116.938L293.695 116.938L295.574 117.622ZM269.277 61.2269L268.593 63.1063L268.593 63.1063L269.277 61.2269ZM255.536 56.2257L253.621 56.8029L253.91 57.7623L254.852 58.105L255.536 56.2257ZM221.029 25.5622L221.377 23.5926L221.377 23.5926L221.029 25.5622ZM42.0323 38.679C46.0603 15.8354 67.8439 0.582339 90.6875 4.61028L91.3821 0.671044C66.3629 -3.7405 42.5046 12.9652 38.0931 37.9844L42.0323 38.679ZM19.1108 168.674L42.0323 38.679L38.0931 37.9844L15.1715 167.979L19.1108 168.674ZM53.1795 217.329C30.3359 213.301 15.0828 191.517 19.1108 168.674L15.1715 167.979C10.76 192.998 27.4657 216.856 52.4849 221.268L53.1795 217.329ZM68.1032 219.96L53.1795 217.329L52.4849 221.268L67.4087 223.899L68.1032 219.96ZM70.6768 220.933C69.9526 220.67 69.2403 220.388 68.5401 220.09L66.9718 223.77C67.738 224.096 68.5171 224.404 69.3087 224.692L70.6768 220.933ZM194.716 266.08L70.6768 220.933L69.3087 224.692L193.348 269.839L194.716 266.08ZM248.548 240.978C240.615 262.775 216.513 274.013 194.716 266.08L193.348 269.839C217.221 278.528 243.618 266.219 252.307 242.346L248.548 240.978ZM293.695 116.938L248.548 240.978L252.307 242.346L297.454 118.306L293.695 116.938ZM268.593 63.1063C290.39 71.0398 301.628 95.1412 293.695 116.938L297.454 118.306C306.143 94.4333 293.834 68.0366 269.961 59.3475L268.593 63.1063ZM254.852 58.105L268.593 63.1063L269.961 59.3475L256.22 54.3463L254.852 58.105ZM220.682 27.5318C236.83 30.3792 249.189 42.0992 253.621 56.8029L257.451 55.6484C252.6 39.5555 239.068 26.7121 221.377 23.5926L220.682 27.5318ZM90.6875 4.61028L220.682 27.5318L221.377 23.5926L91.3821 0.671044L90.6875 4.61028Z" fill="url(#paint0_linear_6932_35980)" mask="url(#path-1-inside-1_6932_35980)"/>
<rect x="48.5143" y="-3.84154" width="218" height="218" rx="43" transform="rotate(10 48.5143 -3.84154)" fill="#048BD1" fill-opacity="0.5" stroke="url(#paint1_linear_6932_35980)" stroke-width="2"/>
<rect x="1" y="1" width="218" height="218" rx="43" fill="#048BD1"/>
<rect x="1" y="1" width="218" height="218" rx="43" fill="url(#paint2_radial_6932_35980)" fill-opacity="0.3"/>
<rect x="1" y="1" width="218" height="218" rx="43" fill="url(#paint3_radial_6932_35980)" fill-opacity="0.3"/>
<rect x="1" y="1" width="218" height="218" rx="43" fill="url(#paint4_radial_6932_35980)" fill-opacity="0.3"/>
<path d="M94.4699 138.959L124.872 55H92.2531H75.9437H65.1882C61.8486 55 58.8603 57.0746 57.6929 60.2037L49.5002 82.1633H81.8024C81.8024 82.1633 77.3688 88.9541 77.3688 103.153C77.3688 121.427 88.7695 134.638 94.4699 138.959Z" fill="white"/>
<path d="M175.542 55.6173H134.373L124.239 82.1633H151.474C162.114 82.1633 175.542 68.5816 175.542 55.6173Z" fill="white"/>
<path d="M89.4029 176L120.438 93.2755C133.106 103.77 137.539 116.117 137.539 131.551C137.539 146.985 130.572 155.01 120.438 165.505C112.331 173.901 96.37 176 89.4029 176Z" fill="white"/>
<rect x="1" y="1" width="218" height="218" rx="43" stroke="url(#paint5_linear_6932_35980)" stroke-width="2"/>
<defs>
<linearGradient id="paint0_linear_6932_35980" x1="16.4653" y1="-4.75166" x2="273.304" y2="276.753" gradientUnits="userSpaceOnUse">
<stop stop-color="#3BD6FC"/>
<stop offset="0.5" stop-color="#088DD2" stop-opacity="0"/>
<stop offset="1" stop-color="#3BD6FC"/>
</linearGradient>
<linearGradient id="paint1_linear_6932_35980" x1="47.7031" y1="-10.5" x2="258.703" y2="210" gradientUnits="userSpaceOnUse">
<stop stop-color="#3BD6FC"/>
<stop offset="0.5" stop-color="#088DD2" stop-opacity="0"/>
<stop offset="1" stop-color="#3BD6FC"/>
</linearGradient>
<radialGradient id="paint2_radial_6932_35980" cx="0" cy="0" r="1" gradientUnits="userSpaceOnUse" gradientTransform="translate(-9.16667 -9.19042e-06) rotate(38.0168) scale(178.602 196.115)">
<stop offset="0.0206068" stop-color="white" stop-opacity="0.3"/>
<stop offset="0.432292" stop-color="white" stop-opacity="0"/>
</radialGradient>
<radialGradient id="paint3_radial_6932_35980" cx="0" cy="0" r="1" gradientUnits="userSpaceOnUse" gradientTransform="translate(249.792 78.8333) rotate(179.405) scale(132.465 145.454)">
<stop offset="0.0206068" stop-color="white" stop-opacity="0.4"/>
<stop offset="0.451086" stop-color="white" stop-opacity="0"/>
</radialGradient>
<radialGradient id="paint4_radial_6932_35980" cx="0" cy="0" r="1" gradientUnits="userSpaceOnUse" gradientTransform="translate(84.7917 249.333) rotate(-90) scale(152.167 223.222)">
<stop offset="0.0206068" stop-color="white" stop-opacity="0.3"/>
<stop offset="0.451086" stop-color="white" stop-opacity="0"/>
</radialGradient>
<linearGradient id="paint5_linear_6932_35980" x1="1.07139e-06" y1="-5.5" x2="211" y2="215" gradientUnits="userSpaceOnUse">
<stop stop-color="#3BD6FC"/>
<stop offset="0.5" stop-color="#088DD2" stop-opacity="0"/>
<stop offset="1" stop-color="#3BD6FC"/>
</linearGradient>
</defs>
</svg>
